<?xml version="1.0" standalone="no"?><!DOCTYPE svg PUBLIC "-//W3C//DTD SVG 1.1//EN" "http://www.w3.org/Graphics/SVG/1.1/DTD/svg11.dtd"><svg t="1551102810244" class="icon" style="" viewBox="0 0 1365 1024" version="1.1" xmlns="http://www.w3.org/2000/svg" p-id="4012" xmlns:xlink="http://www.w3.org/1999/xlink" width="21.328125" height="16"><defs><style type="text/css"></style></defs><path d="M113.85363 56.911454a56.887562 56.887562 0 0 0-56.887562 56.887562v751.8829a56.887562 56.887562 0 0 0 56.887562 56.887562h1137.75123a56.887562 56.887562 0 0 0 56.887561-56.887562V113.799016a56.887562 56.887562 0 0 0-56.887561-56.887562H113.85363z m0-56.887561h1137.75123a113.775123 113.775123 0 0 1 113.775123 113.775123v751.8829a113.775123 113.775123 0 0 1-113.775123 113.775123H113.85363a113.775123 113.775123 0 0 1-113.775123-113.775123V113.799016a113.775123 113.775123 0 0 1 113.775123-113.775123z" fill="#ffffff" p-id="4013" data-spm-anchor-id="a313x.7781069.0.i17" class="selected"></path><path d="M350.505886 282.015535c37.09069 22.356812 73.214292 43.746535 108.769017 64.39672a6393.479263 6393.479263 0 0 0 165.599692 95.229778l25.20119 16.32673c13.425465 8.817572 24.347876 15.188979 32.369022 19.057333l6.598957-3.299479c12.913476-5.802531 23.210125-10.922412 29.922857-14.790766L1306.216919 109.418674l2.047952-2.047953 0.113775-29.467757a26.907817 26.907817 0 0 0-4.380342-16.895605c0.22755 0.284438-7.110945-1.991065-24.746089-1.991065l-1194.638792-1.592852-6.030081-0.341325a22.584362 22.584362 0 0 0-16.383618 4.835443 37.944004 37.944004 0 0 0-5.176768 22.413699L56.966068 107.825822c108.93968 64.85182 206.615623 122.877133 293.539818 174.189713zM1308.321759 113.23014c0 2.275502 0.4551-0.568876 1.592851-3.242591l4.892331 2.161728-3.413254-5.802532-3.071928 1.763515v5.11988zM56.966068 116.415844a9.10201 9.10201 0 0 0 0-0.967089v0.967089z m-52.848544 18.716007a47.614889 47.614889 0 0 1-3.98213-21.901711v-29.012656A90.906323 90.906323 0 0 1 19.647828 23.859781 79.756361 79.756361 0 0 1 84.840973 0.478993l1194.638792 1.592852c32.19836 0 54.555171 6.99717 67.070435 21.048398 13.197914 16.042292 19.910647 36.806252 18.772895 57.911537v32.19836a39.764405 39.764405 0 0 1-3.128815 19.341771 199.447791 199.447791 0 0 1-21.674161 22.64125L748.036165 507.859154a409.931768 409.931768 0 0 1-35.782276 17.74892 89.199696 89.199696 0 0 1-29.581532 10.524198c-11.4344 0-32.710348-10.239761-63.770956-30.605508l-24.97364-16.156067c-17.635144-9.670885-40.560831-22.470587-68.833949-38.626654-28.159343-16.09918-59.845715-34.587637-94.888453-55.465373-35.327176-20.479522-71.678328-42.039908-109.053455-64.567382C233.886384 279.171157 135.186465 220.576969 25.109034 155.042498a76.001782 76.001782 0 0 1-20.99151-19.910647z" fill="#ffffff" p-id="4014" data-spm-anchor-id="a313x.7781069.0.i15" class="selected"></path><path d="M965.687976 385.835335a0.568876 0.568876 0 0 0-1.023976 0.568876l119.634542 207.298274a0.568876 0.568876 0 0 0 1.023976-0.625763l-119.634542-207.241387z m24.632314-14.22189l119.634542 207.241386a29.012656 29.012656 0 1 1-50.288605 29.012657l-119.634541-207.241387a29.012656 29.012656 0 0 1 50.288604-29.012656zM281.956374 593.076722a0.568876 0.568876 0 1 0 1.023976 0.568875l119.691429-207.241386a0.568876 0.568876 0 0 0-1.023976-0.568876l-119.691429 207.241387z m134.709746-232.101251a29.012656 29.012656 0 0 1 10.637974 39.65063l-119.69143 207.298274a29.012656 29.012656 0 1 1-50.288604-29.069544l119.691429-207.241386a29.012656 29.012656 0 0 1 39.650631-10.637974z" fill="#ffffff" p-id="4015" data-spm-anchor-id="a313x.7781069.0.i16" class="selected"></path></svg>